<svg xmlns="http://www.w3.org/2000/svg" viewBox="0 0 65.3 114.36"><path d="M45.8,77.7,45.72,67a1.4,1.4,0,0,0-.5-1.07l-2.83-2.42,3.33,2.84c-5.83-4.44-13.87-14.86-13.87-25.09A28.15,28.15,0,0,1,60,13.08a28.46,28.46,0,0,1,4.46.35,1.44,1.44,0,0,0,1.42-.6L69.18,8a1.41,1.41,0,0,1,1.48-.6A28.17,28.17,0,0,1,87.09,18.2a1.41,1.41,0,0,1,0,1.62l-3.27,4.84a1.42,1.42,0,0,0,0,1.57,28,28,0,0,1,4.33,15c0,10-4.52,19.1-12.31,24.11l2.85-1.94-2.16,1.31a1.41,1.41,0,0,0-.69,1.22V95.36c0,9.57-6.71,17.32-15,17.32h0c-8.28,0-15-7.75-15-17.32V88.12" transform="translate(-27.35 -2.82)" style="fill:none;stroke:#ed1c24;stroke-miterlimit:10;stroke-width:9px"/></svg>